# xmcd
#
# Track frame offsets: 
#        150
#        21372
#        43547
#        68295
#        85287
#        104407
#        125627
#        144015
#        163515
#        182377
#        203257
#        222010
#        245527
#        272687
#
# Disc length: 3817 seconds
#
# Revision: 2
# Processed by: cddbd v1.5.2PL0 Copyright (c) Steve Scherf et al.
# Submitted via: ExactAudioCopy v0.99pb4
#
DISCID=b10ee70e
DTITLE=Collection - Sax and Sex 4
DYEAR=1997
DGENRE=Jazz and Blues
TTITLE0=Fernando
TTITLE1=I Just Called To Say I Love You
TTITLE2=One More Night
TTITLE3=Comme Elle
TTITLE4=Morgana
TTITLE5=Sapore Di Sale
TTITLE6=Theme From Robin Good
TTITLE7=Feelings
TTITLE8=Nostalgia
TTITLE9=September Song
TTITLE10=September Moon
TTITLE11=G Force
TTITLE12=Sailing
TTITLE13=I Do
EXTD=
EXTT0=
EXTT1=
EXTT2=
EXTT3=
EXTT4=
EXTT5=
EXTT6=
EXTT7=
EXTT8=
EXTT9=
EXTT10=
EXTT11=
EXTT12=
EXTT13=
PLAYORDER=
